<svg width="64" height="64" viewBox="0 0 64 64" fill="none" xmlns="http://www.w3.org/2000/svg">
<path d="M48.9858 28.2466C47.9653 28.2466 47.0089 28.3743 46.0519 28.6933L41.0137 18.2975C41.524 17.9785 42.2256 17.7872 42.9907 17.7872C44.5215 17.7872 45.797 18.6165 45.797 19.6365C45.797 19.8278 45.7334 20.0191 45.6693 20.2104C45.4144 20.6571 45.6057 21.231 46.0519 21.4858C46.1796 21.5495 46.3709 21.6135 46.4986 21.6135C46.8175 21.6135 47.2001 21.4222 47.3278 21.1033C47.5827 20.6566 47.6468 20.1468 47.6468 19.7002C47.6468 17.5955 45.5421 15.9374 42.9272 15.9374C41.4604 15.9374 40.0573 16.4477 39.1645 17.4042C38.9732 17.5955 38.9095 17.9145 38.9095 18.1694C38.8459 18.3607 38.9095 18.552 38.9732 18.7433L41.1415 23.2717C40.9502 23.144 40.7589 23.0804 40.5676 23.0804L24.5596 23.0808L23.858 21.6777C23.6031 21.2311 23.0288 20.9761 22.5826 21.2311C22.1359 21.486 21.881 22.0603 22.1359 22.5065L23.0288 24.4199L19.9036 29.1395C18.6917 28.6292 17.4163 28.3743 16.0132 28.3743C10.4647 28.3743 6 32.8386 6 38.3875C6 43.936 10.4643 48.4007 16.0132 48.4007C21.0513 48.4007 25.2607 44.638 25.8987 39.7906H30.9369C31.2559 39.7906 31.5748 39.5993 31.7661 39.344L41.5244 24.4202C41.5881 24.2925 41.6521 24.1012 41.6521 23.9735L44.3307 29.4583C41.1419 31.1164 38.9736 34.4965 38.9736 38.3233C38.9736 43.8718 43.4379 48.3365 48.9868 48.3365C54.5353 48.3365 59 43.8722 59 38.3233C58.9991 32.7748 54.5348 28.2466 48.9863 28.2466L48.9858 28.2466ZM24.0491 26.3336L29.5976 37.7497H26.0897C25.8984 34.4972 24.2404 31.691 21.689 29.9689L24.0491 26.3336ZM24.1768 37.7497H16.5872L20.6053 31.5633C22.6459 32.9664 23.9854 35.1988 24.1766 37.7497H24.1768ZM16.077 46.3598C11.6127 46.3598 7.9772 42.7243 7.9772 38.26C7.9772 33.7958 11.6127 30.1602 16.077 30.1602C17.0975 30.1602 18.0539 30.3515 18.8833 30.6705L14.0363 38.1964C13.845 38.5154 13.845 38.8344 13.9727 39.1529C14.164 39.4719 14.483 39.6632 14.802 39.6632H24.0495C23.4116 43.4895 20.095 46.3598 16.0769 46.3598L16.077 46.3598ZM31.1921 36.7293L25.4524 24.9305L38.9093 24.931L31.1921 36.7293ZM48.9859 46.3598C44.5216 46.3598 40.8861 42.7243 40.8861 38.26C40.8861 35.1988 42.6082 32.5203 45.1591 31.1171L48.7946 38.6426C48.9859 38.9615 49.3049 39.1528 49.6875 39.1528C49.8152 39.1528 49.9424 39.1528 50.1341 39.0252C50.5808 38.7702 50.8357 38.1959 50.5808 37.7497L47.0094 30.3515C47.6474 30.1602 48.349 30.0966 49.0505 30.0966C53.5148 30.0966 57.1503 33.7321 57.1503 38.1964C57.1494 42.6606 53.4503 46.3598 48.9859 46.3598L48.9859 46.3598Z" fill="#262626"/>
<path d="M16.5234 19.1905H25.1335C25.6438 19.1905 26.09 18.7439 26.09 18.234C26.09 17.7238 25.6433 17.2776 25.1335 17.2776L16.5234 17.2771C16.0131 17.2771 15.5669 17.7238 15.5669 18.2336C15.5665 18.7443 16.0131 19.1905 16.5234 19.1905V19.1905Z" fill="#DD3627"/>
</svg>
