<svg width="64" height="64" viewBox="0 0 64 64" fill="none" xmlns="http://www.w3.org/2000/svg">
<path d="M9.85872 50.3137L8.35971 48.8147L36.8531 20.3214L39.3243 19.3491L38.3521 21.8204L9.85872 50.3137Z" fill="#DD3627"/>
<path d="M21.8715 43.9535L20.3725 42.4545L45.2792 17.5479L47.7504 16.5757L46.7782 19.0469L21.8715 43.9535Z" fill="#262626"/>
<path d="M26.8956 27.3763C26.9017 27.6156 26.8124 27.8426 26.6475 28.0076L11.0302 43.6249L9.39492 41.9896L24.5192 26.8653C24.6017 26.7829 24.6464 26.6693 24.6433 26.5497L24.5067 14.088L25.5949 11.9999L26.7395 14.1445L26.8956 27.3763Z" fill="#262626"/>
<path d="M41.5676 27.0897C41.3283 27.0836 41.1013 27.1729 40.9363 27.3378L20.319 47.9552L21.9543 49.5904L42.0786 29.4661C42.161 29.3836 42.2746 29.339 42.3942 29.3421L56.3227 29.4786L58.4109 28.3905L56.2662 27.2458L41.5676 27.0897Z" fill="#262626"/>
</svg>
