<svg width="20" height="20" viewBox="0 0 20 20" fill="none" xmlns="http://www.w3.org/2000/svg">
<rect width="20" height="20" rx="10" fill="black"/>
<path d="M7 14.2273V5.5H10.2727C10.9432 5.5 11.5057 5.625 11.9602 5.875C12.4176 6.125 12.7628 6.46875 12.9957 6.90625C13.2315 7.34091 13.3494 7.83523 13.3494 8.3892C13.3494 8.94886 13.2315 9.44602 12.9957 9.88068C12.7599 10.3153 12.4119 10.6577 11.9517 10.9077C11.4915 11.1548 10.9247 11.2784 10.2514 11.2784H8.08239V9.97869H10.0384C10.4304 9.97869 10.7514 9.91051 11.0014 9.77415C11.2514 9.63778 11.4361 9.45028 11.5554 9.21165C11.6776 8.97301 11.7386 8.69886 11.7386 8.3892C11.7386 8.07955 11.6776 7.80682 11.5554 7.57102C11.4361 7.33523 11.25 7.15199 10.9972 7.02131C10.7472 6.88778 10.4247 6.82102 10.0298 6.82102H8.58097V14.2273H7Z" fill="white"/>
</svg>
