<svg width="64" height="64" viewBox="0 0 64 64" fill="none" xmlns="http://www.w3.org/2000/svg">
<path d="M43.7317 16.4541L40.6489 15.5577H40.6492C38.0354 14.7284 35.3219 14.2463 32.5798 14.1235V12.1513C32.5798 12.0616 32.5798 11.9721 32.489 11.9721H38.9266C39.4774 11.9721 39.9238 11.5305 39.9238 10.9859C39.9238 10.7245 39.8188 10.4737 39.6318 10.2888C39.4448 10.1039 39.1911 10 38.9266 10H24.1482C23.5974 10 23.1507 10.4413 23.1507 10.986C23.1507 11.5305 23.5974 11.9721 24.1482 11.9721H30.5855V14.1235C27.8713 14.2321 25.1857 14.7148 22.6068 15.5577L19.4336 16.4541H19.3428C17.2576 17.3502 15.8066 18.2467 15.8066 20.6671V44.6008C15.7822 45.6793 16.186 46.7245 16.9318 47.5123C17.6776 48.2999 18.7059 48.7672 19.7961 48.8137H24.0574L20.7934 53.4749C20.5026 53.9222 20.6229 54.5173 21.0655 54.8196L21.6093 54.9988C21.9398 54.9922 22.2452 54.8243 22.4256 54.5506L26.5055 48.8136H36.6602L40.7401 54.5506C40.9303 54.8136 41.23 54.9781 41.5564 54.9988L42.1002 54.8196C42.5428 54.5173 42.6631 53.9222 42.3723 53.4749L39.1083 48.8137H43.4604C44.5426 48.7672 45.5621 48.297 46.2932 47.5066C47.0247 46.7163 47.4079 45.6707 47.359 44.6007V20.667C47.359 18.1572 45.5456 17.0815 43.7321 16.454L43.7317 16.4541ZM45.3636 44.6008H45.3639C45.4141 45.1479 45.2414 45.6925 44.8839 46.113C44.5264 46.534 44.0136 46.7961 43.4599 46.8416H19.7956C19.2343 46.7957 18.713 46.5368 18.3412 46.119C17.9691 45.7009 17.7754 45.1569 17.8008 44.6007V36.2639H45.3631L45.3636 44.6008ZM45.3636 34.2921H17.8013V23.2666H45.3636V34.2921ZM45.3636 21.2947H17.8013V20.6672C17.8013 19.5018 18.1639 19.1433 20.0678 18.3366L23.1506 17.4402C25.8791 16.5846 28.7206 16.1313 31.583 16.0955C34.4451 16.1313 37.2866 16.5845 40.0154 17.4402L43.0982 18.3366C45.0021 19.0538 45.3647 19.6813 45.3647 20.6672L45.3636 21.2947Z" fill="#262626"/>
<path d="M31.6299 45.0639C30.6952 45.0409 29.8051 44.6591 29.144 43.998C28.483 43.3369 28.1013 42.4468 28.0779 41.512C28.1018 40.5859 28.4864 39.7057 29.1501 39.0589C29.8137 38.4124 30.7035 38.0507 31.6299 38.0511C32.5477 38.0511 33.4279 38.4156 34.0769 39.0646C34.7262 39.7139 35.0907 40.5941 35.0907 41.512C35.091 42.4385 34.7294 43.3283 34.0826 43.992C33.4362 44.6556 32.556 45.0403 31.6299 45.0639ZM31.6299 40.0546V40.0549C31.2345 40.0543 30.854 40.2048 30.5661 40.4756C30.2784 40.7467 30.1049 41.1172 30.0816 41.512C30.1036 41.9155 30.2736 42.2969 30.5594 42.5826C30.8451 42.8684 31.2265 43.0384 31.6299 43.0604C32.0244 43.0371 32.3953 42.8636 32.6663 42.5759C32.9371 42.288 33.0876 41.9075 33.087 41.512C33.087 41.1255 32.9336 40.7549 32.6603 40.4816C32.387 40.2083 32.0164 40.0549 31.6299 40.0549L31.6299 40.0546Z" fill="#DD3627"/>
</svg>
