<svg width="200" height="200" viewBox="0 0 200 200" fill="none" xmlns="http://www.w3.org/2000/svg">
<path d="M72.6 64.8001H50V145H42.5V64.8001H20V57.6001H72.6V64.8001Z" fill="#1D1D1B"/>
<path d="M127.1 87.7C132.8 93.5 136 101.7 136.1 110.7C136.1 128.9 124.3 145 103.1 145H80.1V107.8C72.2 107.6 65.5 101.3 65.5 92.5C65.5 83.8 72.2 78.1 80.1 77.7V57.7H100.3C118.5 57.7 130.2 68.8 127.1 87.7ZM119.1 89.7C114.4 86.5 108.2 84.9 102.1 84.9H81.3C76.4 84.9 73 88 73 92.6C73 97.5 76.5 100.5 81.3 100.5H100.3C109.3 100.5 116.6 97.4 119.1 89.7ZM120 82.6C120.9 71.3 112.5 64.9 100.3 64.9H87.7V77.7H102.1C109 77.7 115.1 79.7 120 82.6ZM103 137.7C122 137.7 128.6 123.6 128.6 110.9C128.6 105 127.1 99.6 124 95.3C119.8 103.3 111.3 107.7 100.4 107.7H87.7V137.7H103Z" fill="#1D1D1B"/>
<path d="M176.4 64.9H131.1C129.1 64.9 127.5 63.3 127.5 61.3C127.5 59.3 129.1 57.7 131.1 57.7H176.4C178.4 57.7 180 59.3 180 61.3C180 63.2 178.4 64.9 176.4 64.9Z" fill="black"/>
<path d="M157.4 38.6V83.9C157.4 85.9 155.8 87.5 153.8 87.5C151.8 87.5 150.2 85.9 150.2 83.9V38.6C150.2 36.6 151.8 35 153.8 35C155.8 35 157.4 36.6 157.4 38.6Z" fill="black"/>
</svg>
