<svg width="14" height="15" viewBox="0 0 14 15" fill="none" xmlns="http://www.w3.org/2000/svg">
<g clip-path="url(#clip0_206_1076)">
<path d="M7 14C10.5899 14 13.5 11.0899 13.5 7.5C13.5 3.91015 10.5899 1 7 1C3.41015 1 0.5 3.91015 0.5 7.5C0.5 11.0899 3.41015 14 7 14Z" stroke="#000001" stroke-linecap="round" stroke-linejoin="round"/>
<path d="M7 7.5V11" stroke="#000001" stroke-linecap="round" stroke-linejoin="round"/>
<path d="M7 5.5C7.27614 5.5 7.5 5.27614 7.5 5C7.5 4.72386 7.27614 4.5 7 4.5C6.72386 4.5 6.5 4.72386 6.5 5C6.5 5.27614 6.72386 5.5 7 5.5Z" stroke="#000001" stroke-linecap="round" stroke-linejoin="round"/>
</g>
<defs>
<clipPath id="clip0_206_1076">
<rect width="14" height="14" fill="white" transform="translate(0 0.5)"/>
</clipPath>
</defs>
</svg>
